<?xml version="1.0" encoding="utf-8"?>
<!-- Generator: Adobe Illustrator 23.0.0, SVG Export Plug-In . SVG Version: 6.00 Build 0)  -->
<svg version="1.1" id="Layer_1" xmlns="http://www.w3.org/2000/svg" xmlns:xlink="http://www.w3.org/1999/xlink" x="0px" y="0px"
	 viewBox="0 0 128 128" style="enable-background:new 0 0 128 128;" xml:space="preserve">
<style type="text/css">
	.st0{fill:#E51D28;}
</style>
<g>
	<g>
		<path d="M7.6,107.7c9.7-1.4,18.2-3.9,27.1-7.7c-4.4-2.8-8.6-5.5-12.7-8.3c1.4-1.7,2.8-2.8,4.1-4.4c0.6,0.3,1.1,0.6,1.9,1.1
			c7.5,4.4,14.7,3.9,21.6-0.8c3.9-2.8,7.5-6.4,10.8-9.4c5.5-5,11.3-8.8,18.8-9.7c2.8-0.3,5.5,0,9.1,0c-9.7,12.7-20.7,23.2-34,31
			c-16.3,10-34.6,13.3-54.2,15.2c0.6-3.6,1.1-6.9,1.9-10c5-20.5,15.5-36.8,34.6-46.7c9.7-5,20.5-7.2,31.2-8.8
			c13-2.2,25.7-3.9,37.9-8.3c6.9-2.5,13.5-5.8,18-11.6c1.7-1.9,2.8-4.1,4.4-6.9c-1.1,7.2-3,13-7.2,18.5
			c-6.4,8.6-15.5,13.3-25.4,15.8c-10,2.5-20.2,3.6-30.1,5.3c-9.1,1.7-18.5,3-27.1,6.9C25,74.5,16.7,85,11.2,98.3
			C10.4,100.8,9.3,104.1,7.6,107.7z"/>
		<path class="st0" d="M127.6,9.3c-1.4,8.3-5.5,14.9-12.4,19.9s-14.7,7.2-22.7,8.8c-13.3,2.8-26.8,5-40.1,8
			c-10.2,2.2-19.9,6.1-28.8,12.4C13.1,66.2,6.5,76.7,2.1,88.6c-0.3,0.8-0.6,1.7-1.1,2.8c0-7.7,4.4-20.7,9.7-29
			c10-15.8,24.3-24.9,42.3-29c12.4-2.8,24.9-4.4,37.3-6.9c7.5-1.7,14.9-3.9,22.1-6.4C118.5,18.1,123.7,14.8,127.6,9.3z"/>
		<path class="st0" d="M6.5,119.3c8.8-1.7,17.7-3.3,26.5-5.3c21-4.7,38.7-15.8,53.1-31.8c4.4-5,9.1-10,14.1-14.7
			c6.4-6.1,13.8-10.8,22.9-11.6c1.1,0,1.9,0,2.8,0c0.6,0,1.7,0,2.2,0c-0.3,0.6-0.3,0.6-0.6,0.8c-9.7,14.7-20.5,28.5-34.3,39.5
			c-14.1,11.3-30.1,17.7-47.8,20.5c-12.4,2.2-24.9,2.8-37.6,2.8C7.6,119.3,6.8,119.3,6.5,119.3z"/>
	</g>
</g>
</svg>
